<?xml version="1.0" encoding="UTF-8" standalone="no"?>
<!-- Created with Inkscape (http://www.inkscape.org/) -->

<svg
   width="210mm"
   height="297mm"
   viewBox="0 0 210 297"
   version="1.1"
   id="svg5"
   inkscape:version="1.1.2 (0a00cf5339, 2022-02-04)"
   sodipodi:docname="sampleImage.svg"
   xmlns:inkscape="http://www.inkscape.org/namespaces/inkscape"
   xmlns:sodipodi="http://sodipodi.sourceforge.net/DTD/sodipodi-0.dtd"
   xmlns="http://www.w3.org/2000/svg"
   xmlns:svg="http://www.w3.org/2000/svg">
  <sodipodi:namedview
     id="namedview7"
     pagecolor="#ffffff"
     bordercolor="#666666"
     borderopacity="1.0"
     inkscape:pageshadow="2"
     inkscape:pageopacity="0.0"
     inkscape:pagecheckerboard="0"
     inkscape:document-units="mm"
     showgrid="false"
     inkscape:zoom="0.77058782"
     inkscape:cx="397.09945"
     inkscape:cy="559.96213"
     inkscape:window-width="1471"
     inkscape:window-height="1080"
     inkscape:window-x="0"
     inkscape:window-y="16"
     inkscape:window-maximized="1"
     inkscape:current-layer="layer1" />
  <defs
     id="defs2" />
  <g
     inkscape:label="Layer 1"
     inkscape:groupmode="layer"
     id="layer1">
    <path
       style="fill:#000000;fill-opacity:1;fill-rule:nonzero;stroke:none;stroke-width:0.264583"
       id="path87"
       d="m 23.196835,90.050672 c -0.724583,4.315312 -1.376908,8.642596 -1.975091,12.977758 -0.847451,8.56529 -1.236255,17.16987 -1.64586,25.76513 -0.285321,7.44354 -0.626412,14.88508 -1.117125,22.31808 -0.270285,4.75569 -0.797957,9.49068 -1.196142,14.23601 -0.354716,3.08778 -0.51985,6.19017 -0.737389,9.28874 -0.205715,2.26651 -0.302351,4.53921 -0.350676,6.81375 -0.03276,2.22427 -0.03483,4.44896 -0.03164,6.67343 0.0034,2.31278 0.0026,4.62556 0.0078,6.93834 0.02591,2.35911 -0.04732,4.72005 0.03733,7.078 0.05465,1.05247 0.02399,0.58666 0.08406,1.39793 0,0 3.478094,-1.82309 3.478094,-1.82309 v 0 c -0.122775,-0.75893 -0.06437,-0.31598 -0.144798,-1.33253 -0.09524,-2.3509 -0.02511,-4.70481 -0.04631,-7.0571 0.0037,-2.31432 4.4e-5,-4.62863 0.0016,-6.94294 0.0037,-2.22264 -0.003,-4.44545 0.0392,-6.66782 0.05185,-2.26333 0.1547,-4.52464 0.326666,-6.78229 0.199258,-3.08192 0.339417,-6.16792 0.654316,-9.24171 0.364356,-4.72313 0.8358,-9.43893 1.053734,-14.17256 0.415732,-7.40142 0.66345,-14.81025 0.908371,-22.219 0.378299,-8.6272 0.846647,-17.26113 1.86814,-25.83973 0.629695,-4.399409 1.323975,-8.79237 2.326925,-13.124681 0,0 -3.541204,1.716283 -3.541205,1.716283 z" />
    <path
       style="fill:#000000;fill-opacity:1;fill-rule:nonzero;stroke:none;stroke-width:0.264583"
       id="path89"
       d="m 23.802525,92.201893 c 1.529221,-0.19653 3.071164,-0.256551 4.610851,-0.302437 2.255142,-0.04848 4.510969,-0.05181 6.766518,-0.06407 3.431553,-0.03098 6.863625,0.0164 10.29467,-0.05251 3.396152,-0.118562 6.792555,-0.216821 10.190395,-0.26915 3.221096,-0.04784 6.442522,-0.03201 9.663745,-0.01188 1.32262,0.009 2.645259,0.01352 3.967861,0.02466 0,0 3.165594,-2.299634 3.165594,-2.299634 v 0 c -1.344433,0.0094 -2.688892,0.01228 -4.033319,0.02225 -3.250366,0.02471 -6.500693,0.05398 -9.751123,0.0699 -3.394724,0.03327 -6.788214,0.104688 -10.179982,0.256683 -3.414069,0.0895 -6.829668,0.0265 -10.244611,0.02656 -2.239668,-0.0096 -4.479583,-0.01992 -6.719069,0.01775 -1.523609,0.03202 -3.046669,0.08107 -4.564616,0.224869 0,0 -3.166914,2.357012 -3.166914,2.357012 z" />
    <path
       style="fill:#000000;fill-opacity:1;fill-rule:nonzero;stroke:none;stroke-width:0.264583"
       id="path91"
       d="m 69.041784,92.415182 c 0.175488,4.042679 0.02003,8.088518 -0.06526,12.131378 -0.211971,7.00702 -0.09291,14.01319 0.154191,21.01676 0.252844,6.27466 0.361286,12.55332 0.405659,18.83248 0.07564,4.90447 -0.136414,9.80675 -0.51017,14.69573 -0.316436,4.22168 -0.774319,8.43079 -1.101145,12.65154 -0.270703,3.57364 -0.494747,7.14793 -0.608071,10.73012 -0.102089,3.41889 0.03642,6.84019 0.240932,10.25271 0.136031,2.13112 0.2315,4.26409 0.272005,6.3991 0.01545,1.28343 0.01453,2.56696 0.0081,3.85043 -0.01437,0.80818 0.05387,1.62006 -0.09281,2.41902 0,0 3.54671,-1.75273 3.54671,-1.75273 v 0 c 0.05304,-0.81434 0.03529,-1.62974 0.03803,-2.44538 -0.0056,-1.28036 -0.0069,-2.56101 -0.04892,-3.84084 -0.0676,-2.12437 -0.196082,-4.24556 -0.371506,-6.36382 -0.221644,-3.39659 -0.374952,-6.80205 -0.253252,-10.20633 0.119095,-3.57173 0.350047,-7.13614 0.587616,-10.70167 0.315844,-4.21391 0.759108,-8.41706 1.060929,-12.63217 0.353401,-4.888 0.543838,-9.7889 0.430938,-14.69043 -0.09665,-6.26718 -0.236427,-12.53388 -0.494795,-18.79676 -0.260797,-7.00513 -0.409707,-14.01545 -0.09281,-21.02254 0.145229,-4.104264 0.331737,-8.206568 0.399584,-12.312994 0,0 -3.505996,1.786396 -3.505996,1.786396 z" />
    <path
       style="fill:#000000;fill-opacity:1;fill-rule:nonzero;stroke:none;stroke-width:0.264583"
       id="path93"
       d="m 20.180248,146.98004 c 2.749631,-0.0487 5.49995,-0.0545 8.249958,-0.0607 3.169222,0.008 6.329186,0.20995 9.48735,0.44938 1.950463,0.20677 3.897932,0.42495 5.856253,0.54212 1.789441,0.0752 3.580895,0.0771 5.371592,0.0841 1.791782,0.002 3.583548,-0.006 5.375338,-0.005 1.525215,-0.0341 3.043664,0.0159 4.562587,0.15001 1.04264,0.0388 2.066673,0.21696 3.093664,0.38376 0.740905,0.0994 1.461222,0.29356 2.202005,0.39523 0.806723,0.0728 1.601642,0.23212 2.402946,0.34611 0,0 3.223773,-2.2796 3.223773,-2.2796 v 0 c -0.806802,-0.0934 -1.601922,-0.26055 -2.408319,-0.34483 -0.744265,-0.0817 -1.460929,-0.27146 -2.198259,-0.38414 -1.044792,-0.14944 -2.079995,-0.36217 -3.139477,-0.38284 -1.535168,-0.12887 -3.066838,-0.21822 -4.608851,-0.15816 -1.790105,0.004 -3.580196,8e-4 -5.370301,0.002 -1.785813,0.001 -3.572372,0.002 -5.357071,-0.0696 -1.973755,-0.0956 -3.938424,-0.28958 -5.902931,-0.50048 -3.18666,-0.21405 -6.373871,-0.39141 -9.568791,-0.42385 -2.694324,-0.006 -5.388995,-0.0111 -8.082918,-0.0607 0,0 -3.188548,2.31662 -3.188548,2.31662 z" />
    <path
       style="fill:#000000;fill-opacity:1;fill-rule:nonzero;stroke:none;stroke-width:0.264583"
       id="path95"
       d="m 17.384699,203.21304 c 3.597568,0.10813 7.192736,0.32897 10.785308,0.5482 4.898864,0.34182 9.806271,0.50707 14.71458,0.63156 3.059149,0.11573 6.11601,0.0854 9.173403,-0.0442 2.065112,-0.10115 4.132061,-0.14975 6.199304,-0.17617 1.7653,-0.0205 3.530729,-0.0153 5.296077,-0.006 0.793469,0.005 1.586928,0.0111 2.380393,0.0171 0,0 3.194661,-2.32071 3.194661,-2.32071 v 0 c -0.807739,0.005 -1.615477,0.01 -2.423221,0.0137 -1.776479,0.009 -3.552973,0.0134 -5.329439,0.0241 -2.080394,0.0227 -4.160377,0.0737 -6.238022,0.18795 -3.087124,0.15702 -6.173325,0.22637 -9.264775,0.14173 -4.921903,-0.0739 -9.842867,-0.23241 -14.753735,-0.58341 -3.511685,-0.23891 -7.027011,-0.43403 -10.531729,-0.76133 0,0 -3.202805,2.32697 -3.202805,2.32697 z" />
    <path
       style="fill:#000000;fill-opacity:1;fill-rule:nonzero;stroke:none;stroke-width:0.264583"
       id="path97"
       d="m 91.940487,95.809317 c 3.739804,-0.08047 7.481578,0.06415 11.220563,0.147003 5.03225,0.213024 10.06347,0.43952 15.09877,0.567589 3.2478,0.08934 6.49674,0.123116 9.7456,0.142251 2.02385,0.01101 4.0477,0.0146 6.07158,0.01262 2.16303,-0.0043 4.32606,-0.01074 6.4891,-0.01151 2.6883,-0.0045 5.3766,-0.01095 8.06491,-0.01177 2.86119,0.0026 5.72238,-0.0027 8.58357,0.0013 2.52244,0.0037 5.04488,0.0066 7.56731,0.01013 2.3029,5.29e-4 4.60579,-0.0024 6.90867,0.0037 1.08822,0.0019 2.17641,0.0104 3.26459,0.01876 0,0 3.15996,-2.295842 3.15996,-2.295842 v 0 c -1.10541,0.0083 -2.21083,0.01675 -3.31627,0.01876 -2.3063,0.006 -4.6126,0.0032 -6.9189,0.0037 -2.53174,0.0035 -5.06348,0.0064 -7.59521,0.01013 -2.86247,0.0041 -5.72495,-0.0011 -8.58742,0.0013 -2.67758,-7.94e-4 -5.35514,-0.0074 -8.0327,-0.01164 -2.15414,-5.29e-4 -4.30826,-0.0067 -6.46239,-0.0082 -2.03722,0.0011 -4.07439,0.01045 -6.1116,0.01767 -3.28672,0.0071 -6.57357,0.0046 -9.85997,-0.04953 -5.05115,-0.105497 -10.0988,-0.300437 -15.14562,-0.533601 -3.64876,-0.09008 -7.294308,-0.24729 -10.941888,-0.359913 0,0 -3.202655,2.326865 -3.202655,2.326865 z" />
    <path
       style="fill:#000000;fill-opacity:1;fill-rule:nonzero;stroke:none;stroke-width:0.264583"
       id="path99"
       d="m 134.29143,81.656985 c 0.11807,3.565208 -0.0414,7.134905 -0.10567,10.70056 -0.0814,5.422312 -0.12805,10.845075 -0.17436,16.267785 0.003,4.50016 0.34024,8.98911 0.52326,13.48354 0.27779,5.01461 0.4434,10.03365 0.70283,15.04909 0.18062,4.4088 0.35328,8.81775 0.52536,13.22695 0.1166,3.82753 0.39127,7.64747 0.41041,11.47756 0.019,3.59571 -0.17747,7.18371 -0.36686,10.77254 -0.15962,3.13376 -0.39792,6.26233 -0.54657,9.39691 -0.10631,2.30943 -0.11617,4.62143 -0.12513,6.93279 -6e-5,2.63373 0.0171,5.26745 0.0314,7.90114 -0.0131,2.52729 0.0369,5.05689 -0.0588,7.58306 0,0 3.48168,-1.77407 3.48168,-1.77407 v 0 c -0.0995,-2.50545 -0.0451,-5.01475 -0.0624,-7.5214 0.0119,-2.64352 0.0228,-5.28705 0.0294,-7.9306 0.006,-2.30123 0.0211,-4.60282 0.0997,-6.90292 0.11944,-3.12423 0.34765,-6.24167 0.49066,-9.36467 0.18799,-3.59445 0.38184,-7.1882 0.35146,-10.78952 -0.032,-3.82944 -0.32124,-7.64836 -0.44293,-11.47527 -0.19029,-4.40089 -0.37969,-8.80169 -0.58255,-13.20193 -0.26153,-5.01495 -0.45142,-10.03259 -0.69309,-15.04858 -0.16246,-4.49094 -0.4596,-8.97635 -0.51472,-13.47075 -0.009,-5.4157 0.002,-10.83209 0.14836,-16.246233 0.10797,-3.621333 0.28009,-7.239611 0.40008,-10.860288 0,0 -3.52152,1.794306 -3.52152,1.794306 z" />
    <path
       style="fill:#000000;fill-opacity:1;fill-rule:nonzero;stroke:none;stroke-width:0.264583"
       id="path101"
       d="m 132.40591,98.776519 c 0.1472,2.088371 -0.0389,4.153501 -0.32829,6.219911 -0.63237,3.75846 -2.11363,7.30147 -3.58773,10.79345 -1.59329,3.77595 -3.44864,7.42415 -5.42158,11.01296 -1.96944,3.58068 -3.91417,7.17689 -6.10394,10.62896 -1.98576,2.9832 -4.03211,5.92737 -6.17183,8.80229 -1.93097,2.4908 -4.15936,4.71814 -6.38884,6.93674 -2.00012,1.88451 -4.07106,3.69673 -6.161597,5.48048 -1.907246,1.66319 -3.807357,3.33309 -5.786445,4.91111 -0.90509,0.7165 -1.791248,1.46088 -2.742478,2.11706 -0.893538,0.61638 -3.846677,2.30577 2.055587,-1.16939 0,0 -3.050577,2.45402 -3.050577,2.45402 v 0 c 1.280134,-0.73533 2.569898,-1.45414 3.840396,-2.206 1.239996,-0.7338 2.286725,-1.76272 3.438054,-2.61734 1.973773,-1.59409 3.875243,-3.27242 5.7963,-4.92902 2.06639,-1.78973 4.12376,-3.59469 6.09865,-5.48515 2.22672,-2.22658 4.44547,-4.46955 6.35353,-6.98325 2.1157,-2.88348 4.15711,-5.82193 6.12135,-8.81075 2.16402,-3.46603 4.09871,-7.06444 6.07427,-10.63981 1.97463,-3.59516 3.82172,-7.25453 5.39842,-11.04453 1.48627,-3.53652 2.99663,-7.11461 3.63216,-10.9206 0.3089,-2.1084 0.49303,-4.21216 0.45589,-6.345334 0,0 -3.5213,1.794193 -3.5213,1.794193 z" />
    <path
       style="fill:#000000;fill-opacity:1;fill-rule:nonzero;stroke:none;stroke-width:0.264583"
       id="path103"
       d="m 135.08122,100.03078 c 0.32295,2.86681 1.36555,5.5953 2.30435,8.30378 1.76812,4.88989 4.05015,9.56354 6.38076,14.2034 1.95924,3.77401 3.96889,7.52151 5.96483,11.27607 1.40205,2.49131 2.63088,5.07332 3.95085,7.60765 1.12184,2.02702 2.30952,4.02462 3.64913,5.9161 1.32166,1.94424 2.84737,3.735 4.28326,5.59324 1.50753,1.89909 2.91965,3.87031 4.34854,5.82843 1.39343,1.95366 2.82993,3.87627 4.29451,5.77706 1.22484,1.71655 2.51777,3.38656 3.65621,5.16266 0.96104,1.45522 1.85476,2.95279 2.69731,4.47921 0.6389,1.15145 1.15002,2.39198 2.03125,3.38686 0.0681,0.0461 0.13625,0.0923 0.20438,0.13841 0,0 3.25597,-2.28565 3.25597,-2.28565 v 0 c -0.0304,0.03 -0.0607,0.06 -0.0911,0.0899 -0.95133,-0.88787 -1.39244,-2.1616 -2.03759,-3.26308 -0.85066,-1.53195 -1.75511,-3.03284 -2.72464,-4.49293 -1.15082,-1.78212 -2.47605,-3.44384 -3.70085,-5.17508 -1.46988,-1.89233 -2.90294,-3.81376 -4.29671,-5.76284 -1.42708,-1.96358 -2.8411,-3.93808 -4.35294,-5.83799 -1.42858,-1.85673 -2.95461,-3.64036 -4.25144,-5.5954 -1.34141,-1.86871 -2.54792,-3.83596 -3.65601,-5.8511 -1.32787,-2.53081 -2.58276,-5.1009 -4.0078,-7.57982 -2.02434,-3.7344 -4.12028,-7.42974 -6.08323,-11.19721 -2.33091,-4.6235 -4.59428,-9.2948 -6.28265,-14.19911 -0.88082,-2.69975 -1.92108,-5.44916 -2.01418,-8.317243 0,0 -3.52219,1.794643 -3.52219,1.794643 z" />
    <path
       style="fill:#000000;fill-opacity:1;fill-rule:nonzero;stroke:none;stroke-width:0.264583"
       id="path105"
       d="m 106.74681,171.39717 c 4.29591,0.24461 8.57057,0.83362 12.84372,1.33028 6.07353,0.72887 12.17694,1.15106 18.26674,1.71278 3.91206,0.36591 7.82623,0.71167 11.74227,1.03249 1.93196,0.11186 3.84681,0.40043 5.77228,0.58246 1.17782,0.17202 2.3663,0.27218 3.54321,0.4471 0.69846,0.121 0.35264,0.0609 1.03746,0.18033 0,0 3.21359,-2.25297 3.21359,-2.25297 v 0 c -0.68639,-0.1141 -0.34011,-0.0539 -1.03878,-0.18092 -1.18327,-0.21867 -2.39831,-0.2426 -3.5846,-0.45583 -1.95685,-0.15321 -3.90212,-0.43219 -5.86375,-0.52215 -3.96653,-0.27546 -7.9314,-0.58125 -11.89315,-0.91772 -6.10904,-0.55259 -12.23539,-0.92279 -18.32733,-1.65712 -4.17228,-0.52141 -8.33997,-1.07783 -12.5083,-1.62611 0,0 -3.20336,2.32738 -3.20336,2.32738 z" />
  </g>
</svg>
